<svg width="80" height="80" viewBox="0 0 80 80" fill="none" xmlns="http://www.w3.org/2000/svg">
<g clip-path="url(#clip0_1871_13249)">
<rect width="80" height="80" rx="20" fill="#121818"/>
<g filter="url(#filter0_f_1871_13249)">
<rect x="-11" y="-13" width="67" height="61" rx="30.5" fill="#56DBBB"/>
</g>
<path d="M26.92 35.36L21.86 46H15.46L10.4 35.36H14.68L18.48 43.6H18.84L22.64 35.36H26.92ZM37.9752 39.38C37.8818 39.1533 37.7485 38.9333 37.5752 38.72C37.4018 38.5067 37.1818 38.3133 36.9152 38.14C36.6618 37.9533 36.3485 37.8067 35.9752 37.7C35.6018 37.5933 35.1618 37.54 34.6552 37.54C34.1485 37.54 33.7085 37.5933 33.3352 37.7C32.9618 37.8067 32.6418 37.9533 32.3752 38.14C32.1085 38.3133 31.8885 38.5067 31.7152 38.72C31.5552 38.9333 31.4285 39.1533 31.3352 39.38H37.9752ZM42.6352 40.68C42.6352 40.8533 42.6218 41.0267 42.5952 41.2C42.5818 41.36 42.5618 41.52 42.5352 41.68H31.2152C31.2952 41.92 31.4152 42.1667 31.5752 42.42C31.7352 42.6733 31.9485 42.9067 32.2152 43.12C32.4818 43.32 32.8152 43.4867 33.2152 43.62C33.6152 43.7533 34.0952 43.82 34.6552 43.82C35.0152 43.82 35.3552 43.7933 35.6752 43.74C36.0085 43.6733 36.3018 43.5933 36.5552 43.5C36.8218 43.3933 37.0418 43.28 37.2152 43.16C37.3885 43.0267 37.5018 42.8867 37.5552 42.74H42.2752C41.7952 43.78 40.9152 44.6333 39.6352 45.3C38.3552 45.9533 36.6952 46.28 34.6552 46.28C33.3218 46.28 32.1552 46.1333 31.1552 45.84C30.1685 45.5467 29.3418 45.1467 28.6752 44.64C28.0085 44.1333 27.5085 43.54 27.1752 42.86C26.8418 42.18 26.6752 41.4533 26.6752 40.68C26.6752 39.9067 26.8418 39.18 27.1752 38.5C27.5085 37.82 28.0085 37.2267 28.6752 36.72C29.3418 36.2133 30.1685 35.8133 31.1552 35.52C32.1552 35.2267 33.3218 35.08 34.6552 35.08C35.9885 35.08 37.1485 35.2267 38.1352 35.52C39.1352 35.8133 39.9685 36.2133 40.6352 36.72C41.3018 37.2267 41.8018 37.82 42.1352 38.5C42.4685 39.18 42.6352 39.9067 42.6352 40.68ZM59.9013 40.36V46H55.8213V41.8C55.8213 41.3733 55.8013 40.94 55.7613 40.5C55.7346 40.06 55.6213 39.66 55.4213 39.3C55.2346 38.94 54.9279 38.6467 54.5013 38.42C54.0879 38.18 53.4946 38.06 52.7213 38.06C52.3213 38.06 51.8746 38.12 51.3813 38.24C50.8879 38.36 50.4213 38.5467 49.9813 38.8C49.5413 39.04 49.1679 39.3467 48.8613 39.72C48.5679 40.0933 48.4212 40.5333 48.4212 41.04V46H44.3213V35.36H48.4212V36.46C48.4212 36.6333 48.4079 36.7733 48.3813 36.88C48.3679 36.9867 48.3479 37.08 48.3213 37.16C48.2946 37.24 48.2546 37.3133 48.2013 37.38C48.1613 37.4467 48.1146 37.52 48.0613 37.6L48.3613 37.8C48.3613 37.8 48.5013 37.66 48.7813 37.38C49.0613 37.0867 49.4679 36.7733 50.0013 36.44C50.5346 36.0933 51.1879 35.78 51.9613 35.5C52.7479 35.22 53.6413 35.08 54.6413 35.08C55.6679 35.08 56.5213 35.1933 57.2013 35.42C57.8813 35.6467 58.4213 35.98 58.8213 36.42C59.2213 36.86 59.5013 37.4133 59.6613 38.08C59.8213 38.7333 59.9013 39.4933 59.9013 40.36ZM61.8603 35.36H65.9603V46H61.8603V35.36ZM61.8603 31.08H65.9603V33.72H61.8603V31.08Z" fill="url(#paint0_linear_1871_13249)"/>
</g>
<defs>
<filter id="filter0_f_1871_13249" x="-191" y="-193" width="427" height="421" filterUnits="userSpaceOnUse" color-interpolation-filters="sRGB">
<feFlood flood-opacity="0" result="BackgroundImageFix"/>
<feBlend mode="normal" in="SourceGraphic" in2="BackgroundImageFix" result="shape"/>
<feGaussianBlur stdDeviation="90" result="effect1_foregroundBlur_1871_13249"/>
</filter>
<linearGradient id="paint0_linear_1871_13249" x1="10" y1="41.5" x2="70" y2="41.5" gradientUnits="userSpaceOnUse">
<stop stop-color="#56DBBB"/>
<stop offset="1" stop-color="#E193EE"/>
</linearGradient>
<clipPath id="clip0_1871_13249">
<rect width="80" height="80" rx="20" fill="white"/>
</clipPath>
</defs>
</svg>
